<svg id="Layer_1" data-name="Layer 1" xmlns="http://www.w3.org/2000/svg" viewBox="0 0 52 52"><defs><style>.cls-1{fill:#fff;}.cls-2{fill:#ff4500;}.cls-3{fill:#ea0027;}</style></defs><title>give_upvote</title><path d="M34.67,41.16c-2.2,1.06,1.51,3.47,2.43,3.8A7.8,7.8,0,0,0,43.88,44c2.67-1.74,5.47-6.32,3.79-10.55-1.18-3-5.76-3.66-7.59-.88-1.17,1.77,1.52,3.59,0,5.15a19.23,19.23,0,0,1-5.37,3.41Z"/><path class="cls-1" d="M36.94,44.38l-.11,0Z"/><path class="cls-1" d="M36.84,44.34Z"/><path class="cls-1" d="M44.72,31.88c-1.07,0-1,.57-1.58,1.54a6.92,6.92,0,0,0-.35,1A5.73,5.73,0,0,0,42.7,36l0,.54c0,.13,0,.21,0,.21a1.83,1.83,0,0,1-.36-.71,2.93,2.93,0,0,1-.14-1,9.11,9.11,0,0,1-2.16,3.48C38,40.14,32.71,42.1,37.39,44l-.08,0,.08,0c1.15.47.43.18,0,0,3.31,1.35,7.06-.88,8.64-3.66C47.75,37.31,47.77,31.93,44.72,31.88Z"/><path d="M6.44,30.77a2.39,2.39,0,0,1,.91,1.53,12.18,12.18,0,0,0,5,8.87c.16.13.33.24.49.35a25.65,25.65,0,0,0,5.52,2.81,24,24,0,0,0,8.29,1.24c2.74-.09,5.49-.1,8.06-1.18a22.6,22.6,0,0,0,6.25-4c2.21-2.67,4.31-5.45,4.62-9a11.29,11.29,0,0,1,1.64-4.91,4.66,4.66,0,0,0,.54-1.58c.78-4.68-3.5-9.17-7.84-7.57a3.37,3.37,0,0,1-3-.49A18.14,18.14,0,0,0,29.33,14c-.75-.07-1.49-.19-2.57-.33.77-1.93,1.44-3.68,2.17-5.4a1.49,1.49,0,0,1,1.72-.94c1.36.28,2.69.67,4,1,.64.16.76.54.69,1.18A3.57,3.57,0,0,0,41.11,13,3.44,3.44,0,0,0,42.3,8.09C41,6.23,38.35,5.57,36.75,6.81a1.29,1.29,0,0,1-1.69.12,7.6,7.6,0,0,0-4.44-1.07,3.38,3.38,0,0,0-2.69,1.37C26.59,9,26.28,11,25.84,13c-.11.49-.17.78-.77.9-2,.39-3.92.79-5.83,1.38a26.66,26.66,0,0,0-3.08,1.53,2.24,2.24,0,0,1-1.34.23c-4.27-1.06-7.54.28-10,4C2.77,24.17,4.12,29,6.44,30.77Z"/><path class="cls-1" d="M37.26,8.37a2,2,0,0,1,2.84-.54,2.27,2.27,0,0,1,1.17,3.06,2.71,2.71,0,0,1-3.33,1.2A2.71,2.71,0,0,1,37.26,8.37Z"/><path class="cls-1" d="M42.25,18.46a12.75,12.75,0,0,0-2.48,0c1.76,2.1,3.33,3.86,4,6.23-4-5.95-9.64-9.32-16.71-9.37a19.14,19.14,0,0,0-17,9.06c-.17-.53-.51-1-.38-1.3a9.3,9.3,0,0,1,4.18-4.51c-3-1.13-6.34.54-8,3.85-1.29,2.58-.52,6.08,1.74,7.5a18.14,18.14,0,0,1,.55-2.24,15.4,15.4,0,0,1,1-1.9.86.86,0,0,1,.07.69,12.41,12.41,0,0,0,.4,8.24A11.06,11.06,0,0,0,13.43,40c7.18,5.27,17.21,6.56,25.28.91a13.72,13.72,0,0,0,5.77-10.45c.1-1.13.1-2.26.15-3.4l.3.27c.44-.29,1.12-.49,1.3-.9A6.06,6.06,0,0,0,42.25,18.46Z"/><path d="M14,29a4.2,4.2,0,0,1,2-3.86,5.87,5.87,0,0,1,2.34-.33c1.51.19,3.07,2.28,3.21,3.89s-.67,2.7-2.54,3.21A4.55,4.55,0,0,1,16,32,3.15,3.15,0,0,1,14,29Z"/><path d="M39.56,30a4.91,4.91,0,0,1-5.77,1.68c-1.64-.89-2.29-3.65-1.22-5.6,1-1.72,3.14-2.17,5.16-1.06C39.34,25.9,40.34,28.62,39.56,30Z"/><path class="cls-2" d="M33.72,26.79a2.85,2.85,0,0,1,3.45-.72,3.1,3.1,0,0,1,1,3.51,2.92,2.92,0,0,1-3.73,1C33,29.82,33,28,33.72,26.79Z"/><path class="cls-2" d="M15.53,27.12a2.65,2.65,0,0,1,3.36-.78A2.77,2.77,0,0,1,20.07,30c-.7,1.22-2.63,1.25-3.32,1A2.51,2.51,0,0,1,15.53,27.12Z"/><path d="M18.24,36.33c2.14,2.46,9.8,4,12.78,1.21.47-.44-1.07-.38-1.63-.1-3.26,1.59-6.79.49-9.63-1-.58-.31-2.1-1.47-1.58-.1Z"/><path d="M44.3,26.45A36.06,36.06,0,0,0,39.79,22c-1.14-.89-2.45-2.11-3.89-2.34-1.09-.17-2.31,1.51-3,2.14-1.91,1.86-3.79,3.77-5.64,5.7-1.12,1.17-2.79,2.41-2.28,4.25a.51.51,0,0,0,.47.34,31,31,0,0,1,5.45.71,67.7,67.7,0,0,0-.9,9.29c0,.39.38.5.67.49,3.91-.13,5.87,0,9.77-.08.29,0,.79-.24.8-.61.11-3,.39-6.3-.13-9.24,2.18-.32,3.65.11,5.24-.34a1.49,1.49,0,0,0,1.19-1.66C47.51,29.17,45.16,27.39,44.3,26.45Z"/><path class="cls-3" d="M46.16,31.14c-1.84.2-3.73.18-5.58.28-.35,0-.88.31-.8.75a42.24,42.24,0,0,1,.29,9c-3.42.11-5-.07-8.41,0,.26-3.13.14-6.21.86-9.27.13-.56-.74-.57-1.2-.24-1-.23-2.88-.38-3.86-.51-2.47-.33,1.13-3.31,1.9-4.11,1.16-1.19,2.35-2.37,3.53-3.54s2.43-3.18,3.89-2.23c2.57,1.66,4,3.39,6.43,5.73C43.42,27.24,46.82,31.07,46.16,31.14Z"/><path class="cls-2" d="M45.22,30.39c-1.66.18-3.37.17-5,.25-.32,0-.8.28-.72.67a38.52,38.52,0,0,1,.22,8.18c-3.09.1-4.34-.09-7.43,0,.24-2.83.07-5.62.72-8.38.12-.51-.67-.52-1.09-.22-.86-.21-2.66-.36-3.54-.48-2.23-.3,1-3,1.72-3.72,1.05-1.08,2.12-2.14,3.19-3.2s2.2-2.87,3.52-2a32.35,32.35,0,0,1,5.75,5.17C42.69,26.84,45.82,30.32,45.22,30.39Z"/><path d="M15.52,42.29c-1.31,1.77.76,3.75,2.24,4.54,2.91,1.54,5.55,1.3,8.52.78,4-.7,8.33-5,9.06-8.38,1.38-4.2-3.48-6.79-7.69-4.39-2.18,1.24-2.25,3.35-4.78,4.34S17.23,40,15.52,42.29Z"/><path class="cls-1" d="M23.19,40.22c3.15-.72,3.77-6.72,8.89-4.86,5.28,1.92-.45,8-1.88,9.26-2.69,2.31-10.66,3.74-12.91.57C15.26,42.32,20.06,40.94,23.19,40.22Z"/><path d="M43.69,30.86c-2.71,0-4.85,1.37-4.5,4.44.29,2.54,3.06,4.77,5.59,3.67,3.6-1.56,3.38-8.16-1.09-8.11Z"/><path class="cls-1" d="M42.69,38.84a4,4,0,0,1-2.07-5.6c.78-1.45,4-2,5.52-.39C48.33,35.14,46.84,40.82,42.69,38.84Z"/></svg>